<svg width="50" height="47" viewBox="0 0 50 47" fill="none" xmlns="http://www.w3.org/2000/svg">
<path d="M40 31.2774H35V36.451H40V31.2774ZM40 20.9303H35V26.1039H40V20.9303ZM45 41.6245H25V36.451H30V31.2774H25V26.1039H30V20.9303H25V15.7567H45V41.6245ZM20 10.5832H15V5.40964H20V10.5832ZM20 20.9303H15V15.7567H20V20.9303ZM20 31.2774H15V26.1039H20V31.2774ZM20 41.6245H15V36.451H20V41.6245ZM10 10.5832H5V5.40964H10V10.5832ZM10 20.9303H5V15.7567H10V20.9303ZM10 31.2774H5V26.1039H10V31.2774ZM10 41.6245H5V36.451H10V41.6245ZM25 10.5832V0.236084H0V46.7981H50V10.5832H25Z" fill="url(#paint0_linear_71_2295)"/>
<defs>
<linearGradient id="paint0_linear_71_2295" x1="0" y1="0.236084" x2="46.4441" y2="50.1095" gradientUnits="userSpaceOnUse">
<stop stop-color="#C2FFD8"/>
<stop offset="1" stop-color="#465EFB"/>
</linearGradient>
</defs>
</svg>
