<svg width="50" height="47" viewBox="0 0 50 47" fill="none" xmlns="http://www.w3.org/2000/svg">
<path d="M44.4444 41.6636H5.55556V16.6112H44.4444V41.6636ZM36.1111 0.668823V5.2238H13.8889V0.668823H8.33333V5.2238H5.55556C2.47222 5.2238 0 7.25077 0 9.77878V41.6636C0 42.8717 0.585315 44.0303 1.62718 44.8845C2.66905 45.7387 4.08213 46.2186 5.55556 46.2186H44.4444C45.9179 46.2186 47.3309 45.7387 48.3728 44.8845C49.4147 44.0303 50 42.8717 50 41.6636V9.77878C50 7.25077 47.5 5.2238 44.4444 5.2238H41.6667V0.668823H36.1111ZM38.8889 25.7212H25V37.1087H38.8889V25.7212Z" fill="url(#paint0_linear_13_3258)"/>
<defs>
<linearGradient id="paint0_linear_13_3258" x1="0" y1="0.668823" x2="45.3526" y2="50.4524" gradientUnits="userSpaceOnUse">
<stop stop-color="#CE9FFC"/>
<stop offset="1" stop-color="#7367F0"/>
</linearGradient>
</defs>
</svg>
