<svg width="50" height="52" viewBox="0 0 50 52" fill="none" xmlns="http://www.w3.org/2000/svg">
<path d="M50 20.6271H31.1654L38.777 12.698C31.1932 5.10641 18.9146 4.82524 11.3307 12.4169C3.74687 20.0366 3.74687 32.3238 11.3307 39.9717C18.9146 47.5633 31.1932 47.5633 38.777 39.9717C42.555 36.1758 44.4441 31.7615 44.4441 26.1943H50C50 31.7615 47.5554 38.9876 42.6662 43.8799C32.9155 53.6647 17.0811 53.6647 7.33045 43.8799C-2.39243 34.1233 -2.47577 18.2652 7.27489 8.50858C17.0255 -1.24807 32.6655 -1.24807 42.4162 8.50858L50 0.607666V20.6271ZM26.3873 14.6662V26.616L36.1102 32.4644L34.11 35.8666L22.2203 28.7248V14.6662H26.3873Z" fill="url(#paint0_linear_13_3262)"/>
<defs>
<linearGradient id="paint0_linear_13_3262" x1="0" y1="0.607666" x2="50.6071" y2="50.604" gradientUnits="userSpaceOnUse">
<stop stop-color="#81FFEF"/>
<stop offset="1" stop-color="#F067B4"/>
</linearGradient>
</defs>
</svg>
