<svg width="50" height="44" viewBox="0 0 50 44" fill="none" xmlns="http://www.w3.org/2000/svg">
<path d="M46.75 1.10953C41.75 2.96562 34.75 4.82171 25 4.82171C15.25 4.82171 7.75 2.70046 3.25 1.10953C1.75 0.314061 0 1.63984 0 3.49593V40.6178C0 42.4739 1.75 43.7996 3.25 43.2693C8.5 41.4132 15.25 39.292 25 39.292C34.75 39.292 41.75 41.4132 46.75 43.2693C48.5 43.7996 50 42.4739 50 40.6178V3.49593C50 1.63984 48.25 0.314061 46.75 1.10953ZM25 30.0115C19.25 30.0115 13.75 30.2767 8.75 31.0721L18 19.4053L23 25.769L30 16.7537L41.25 31.0721C36.25 30.2767 30.75 30.0115 25 30.0115Z" fill="url(#paint0_linear_71_2293)"/>
<defs>
<linearGradient id="paint0_linear_71_2293" x1="0" y1="0.874023" x2="41.9599" y2="50.2234" gradientUnits="userSpaceOnUse">
<stop stop-color="#A0FE65"/>
<stop offset="1" stop-color="#FA016D"/>
</linearGradient>
</defs>
</svg>
