<svg width="50" height="41" viewBox="0 0 50 41" fill="none" xmlns="http://www.w3.org/2000/svg">
<path d="M9.09091 0.236084H50V30.6026H9.09091V0.236084ZM29.5455 7.82771C31.3537 7.82771 33.088 8.62754 34.3666 10.0512C35.6453 11.475 36.3636 13.4059 36.3636 15.4193C36.3636 17.4328 35.6453 19.3637 34.3666 20.7874C33.088 22.2111 31.3537 23.011 29.5455 23.011C27.7372 23.011 26.0029 22.2111 24.7243 20.7874C23.4456 19.3637 22.7273 17.4328 22.7273 15.4193C22.7273 13.4059 23.4456 11.475 24.7243 10.0512C26.0029 8.62754 27.7372 7.82771 29.5455 7.82771ZM18.1818 5.29717C18.1818 6.63945 17.7029 7.92676 16.8505 8.8759C15.998 9.82504 14.8419 10.3583 13.6364 10.3583V20.4804C14.8419 20.4804 15.998 21.0136 16.8505 21.9628C17.7029 22.9119 18.1818 24.1992 18.1818 25.5415H40.9091C40.9091 24.1992 41.388 22.9119 42.2404 21.9628C43.0929 21.0136 44.249 20.4804 45.4545 20.4804V10.3583C44.249 10.3583 43.0929 9.82504 42.2404 8.8759C41.388 7.92676 40.9091 6.63945 40.9091 5.29717H18.1818ZM0 10.3583H4.54545V35.6637H40.9091V40.7248H0V10.3583Z" fill="url(#paint0_linear_104_138)"/>
<defs>
<linearGradient id="paint0_linear_104_138" x1="0" y1="0.236084" x2="39.6038" y2="49.1433" gradientUnits="userSpaceOnUse">
<stop stop-color="#92FFC0"/>
<stop offset="1" stop-color="#002661"/>
</linearGradient>
</defs>
</svg>
