<svg width="50" height="41" viewBox="0 0 50 41" fill="none" xmlns="http://www.w3.org/2000/svg">
<path d="M42.2702 22.3722L29.3857 33.9115H24.1867V29.2553L37.0712 17.716L42.2702 22.3722ZM49.9557 20.7527C49.9557 21.36 49.2775 21.9674 48.5994 22.5747L42.9483 27.6358L40.9139 25.8138L46.791 20.5503L45.4348 19.3356L43.8525 20.7527L38.6535 16.0965L43.6264 11.8452C44.0785 11.4403 44.9827 11.4403 45.6608 11.8452L48.8254 14.6794C49.2775 15.0843 49.2775 15.8941 48.8254 16.5014C48.3734 16.9063 47.9213 17.3112 47.9213 17.716C47.9213 18.1209 48.3734 18.5258 48.8254 18.9307C49.5036 19.538 50.1817 20.1454 49.9557 20.7527ZM4.52087 36.7457V4.35478H20.3439V14.4769H31.6461V17.5136L36.167 13.4647V12.4525L22.6044 0.305908H4.52087C2.03439 0.305908 0 2.1279 0 4.35478V36.7457C0 38.9726 2.03439 40.7946 4.52087 40.7946H31.6461C34.1326 40.7946 36.167 38.9726 36.167 36.7457H4.52087ZM22.6044 30.8749C22.1523 30.8749 21.7002 31.0773 21.4742 31.0773L20.3439 26.6236H16.9533L12.2064 30.0651L13.5626 24.5991H10.172L7.91153 34.7213H11.3022L17.8575 29.4578L19.2137 34.114H21.4742L22.6044 33.9115V30.8749Z" fill="url(#paint0_linear_104_140)"/>
<defs>
<linearGradient id="paint0_linear_104_140" x1="0" y1="0.305908" x2="39.6038" y2="49.2132" gradientUnits="userSpaceOnUse">
<stop stop-color="#ABDCFF"/>
<stop offset="1" stop-color="#0396FF"/>
</linearGradient>
</defs>
</svg>
