<svg width="13" height="14" viewBox="0 0 13 14" fill="none" xmlns="http://www.w3.org/2000/svg">
<path d="M1.7942 2.29343L1.79438 2.29321C3.46233 0.272856 6.16437 -0.028883 8.12655 1.60884L8.12656 1.60885C9.08313 2.40748 9.70529 3.47045 9.94448 4.77973C10.2553 6.46838 9.91523 8.00231 8.95026 9.35038C8.95209 9.35258 8.9539 9.35476 8.95571 9.35694C8.99944 9.40958 9.03993 9.45831 9.0818 9.50567L9.08199 9.50588C9.52224 10.0057 9.96336 10.5046 10.4046 11.0036L10.4059 11.0051C10.8475 11.5046 11.2892 12.0042 11.7301 12.5047C11.7804 12.5616 11.8479 12.6486 11.8742 12.7495L11.729 12.7872M1.7942 2.29343L1.91006 2.38871C0.336054 4.30262 0.292144 7.27854 1.79184 9.29559C3.21047 11.2082 6.03757 11.9344 8.24166 9.92911C8.27448 9.96698 8.30722 10.0048 8.33988 10.0426M1.7942 2.29343C0.175161 4.2621 0.131872 7.31423 1.67136 9.38495M1.7942 2.29343L1.67136 9.38495M11.729 12.7872L11.874 12.7488C11.8996 12.8453 11.9045 12.9473 11.8745 13.0448C11.8439 13.1441 11.7804 13.2279 11.6881 13.2896C11.6878 13.2898 11.6875 13.29 11.6873 13.2902L11.604 13.1654M11.729 12.7872C11.7121 12.7223 11.6648 12.6573 11.6175 12.6039L11.604 13.1654M11.729 12.7872C11.7695 12.94 11.7358 13.0776 11.604 13.1654M11.604 13.1654C11.4487 13.2724 11.3237 13.2075 11.2088 13.0776C11.0018 12.8434 10.7943 12.6092 10.5867 12.3748C10.1713 11.9058 9.7554 11.4363 9.34097 10.965M9.34097 10.965C9.09595 10.6879 8.85463 10.4087 8.61016 10.1258C8.55682 10.0641 8.50333 10.0022 8.44963 9.94014C8.41322 9.97502 8.37664 10.0092 8.33988 10.0426M9.34097 10.965L9.22833 11.0641C9.22835 11.0641 9.22836 11.0641 9.22838 11.0641M9.34097 10.965L9.2286 11.0644C9.22853 11.0643 9.22845 11.0642 9.22838 11.0641M8.33988 10.0426C6.06104 12.1135 3.13392 11.3568 1.67136 9.38495M8.33988 10.0426C8.39215 10.103 8.44424 10.1632 8.49622 10.2234C8.74078 10.5063 8.98283 10.7864 9.22838 11.0641M1.67136 9.38495L9.22838 11.0641M5.30463 10.4607C3.07874 10.4684 1.2987 8.45897 1.28518 5.94529L5.30463 10.4607ZM5.30463 10.4607C7.66902 10.4531 9.33084 8.26414 9.31395 5.91473L5.30463 10.4607ZM5.30415 10.3107L5.30412 10.3107C3.17823 10.318 1.44835 8.39385 1.43518 5.94449C1.42202 3.48738 3.1425 1.52636 5.2945 1.52636C7.54392 1.52636 9.17383 3.61277 9.16394 5.91409L9.16396 5.91581C9.18042 8.2058 7.56363 10.3034 5.30415 10.3107Z" fill="#2A93D5" stroke="#2A93D5" stroke-width="0.3"/>
</svg>
